<mxfile host="app.diagrams.net" modified="2021-07-29T13:56:44.800Z" agent="5.0 (Windows NT 10.0; Win64; x64) AppleWebKit/537.36 (KHTML, like Gecko) Chrome/92.0.4515.107 Safari/537.36" etag="D9ynyADVpcQMVjGVFBoT" version="14.9.3" type="github">
  <diagram id="HnSvjjvH0BOE_h-hAGf3" name="Page-1">
    <mxGraphModel dx="2249" dy="794" grid="1" gridSize="10" guides="1" tooltips="1" connect="1" arrows="1" fold="1" page="1" pageScale="1" pageWidth="827" pageHeight="1169" math="0" shadow="0">
      <root>
        <mxCell id="0" />
        <mxCell id="1" parent="0" />
        <mxCell id="Ird5JlI5sVTAQDbrXVhb-1" value="Başla" style="ellipse;whiteSpace=wrap;html=1;" vertex="1" parent="1">
          <mxGeometry x="160" y="90" width="120" height="50" as="geometry" />
        </mxCell>
        <mxCell id="Ird5JlI5sVTAQDbrXVhb-2" value="" style="endArrow=classic;html=1;exitX=0.5;exitY=1;exitDx=0;exitDy=0;entryX=0.5;entryY=0;entryDx=0;entryDy=0;" edge="1" parent="1" source="Ird5JlI5sVTAQDbrXVhb-1" target="Ird5JlI5sVTAQDbrXVhb-4">
          <mxGeometry width="50" height="50" relative="1" as="geometry">
            <mxPoint x="500" y="210" as="sourcePoint" />
            <mxPoint x="220" y="200" as="targetPoint" />
          </mxGeometry>
        </mxCell>
        <mxCell id="Ird5JlI5sVTAQDbrXVhb-4" value="Çaydanlığa su doldur" style="rounded=0;whiteSpace=wrap;html=1;" vertex="1" parent="1">
          <mxGeometry x="160" y="190" width="120" height="60" as="geometry" />
        </mxCell>
        <mxCell id="Ird5JlI5sVTAQDbrXVhb-6" value="" style="endArrow=classic;html=1;exitX=1;exitY=0.5;exitDx=0;exitDy=0;entryX=0;entryY=0.5;entryDx=0;entryDy=0;" edge="1" parent="1" source="Ird5JlI5sVTAQDbrXVhb-4" target="Ird5JlI5sVTAQDbrXVhb-7">
          <mxGeometry width="50" height="50" relative="1" as="geometry">
            <mxPoint x="280" y="250" as="sourcePoint" />
            <mxPoint x="350" y="220" as="targetPoint" />
          </mxGeometry>
        </mxCell>
        <mxCell id="Ird5JlI5sVTAQDbrXVhb-7" value="Çaydanlığı ocağa koy ve bekle" style="rounded=0;whiteSpace=wrap;html=1;" vertex="1" parent="1">
          <mxGeometry x="330" y="190" width="120" height="60" as="geometry" />
        </mxCell>
        <mxCell id="Ird5JlI5sVTAQDbrXVhb-8" value="Su kaynadı mı?" style="rhombus;whiteSpace=wrap;html=1;" vertex="1" parent="1">
          <mxGeometry x="500" y="175" width="120" height="90" as="geometry" />
        </mxCell>
        <mxCell id="Ird5JlI5sVTAQDbrXVhb-9" value="" style="endArrow=classic;html=1;exitX=1;exitY=0.5;exitDx=0;exitDy=0;entryX=0;entryY=0.5;entryDx=0;entryDy=0;" edge="1" parent="1" source="Ird5JlI5sVTAQDbrXVhb-7" target="Ird5JlI5sVTAQDbrXVhb-8">
          <mxGeometry width="50" height="50" relative="1" as="geometry">
            <mxPoint x="500" y="200" as="sourcePoint" />
            <mxPoint x="550" y="150" as="targetPoint" />
          </mxGeometry>
        </mxCell>
        <mxCell id="Ird5JlI5sVTAQDbrXVhb-11" value="" style="endArrow=classic;html=1;exitX=1;exitY=0.5;exitDx=0;exitDy=0;entryX=0;entryY=0.5;entryDx=0;entryDy=0;" edge="1" parent="1" source="Ird5JlI5sVTAQDbrXVhb-8" target="Ird5JlI5sVTAQDbrXVhb-13">
          <mxGeometry width="50" height="50" relative="1" as="geometry">
            <mxPoint x="630" y="220" as="sourcePoint" />
            <mxPoint x="700" y="220" as="targetPoint" />
          </mxGeometry>
        </mxCell>
        <mxCell id="Ird5JlI5sVTAQDbrXVhb-12" value="Hayır" style="text;html=1;strokeColor=none;fillColor=none;align=center;verticalAlign=middle;whiteSpace=wrap;rounded=0;" vertex="1" parent="1">
          <mxGeometry x="640" y="190" width="40" height="20" as="geometry" />
        </mxCell>
        <mxCell id="Ird5JlI5sVTAQDbrXVhb-13" value="Bekle" style="rounded=0;whiteSpace=wrap;html=1;" vertex="1" parent="1">
          <mxGeometry x="700" y="200" width="100" height="40" as="geometry" />
        </mxCell>
        <mxCell id="Ird5JlI5sVTAQDbrXVhb-14" value="" style="endArrow=classic;html=1;exitX=0.5;exitY=0;exitDx=0;exitDy=0;exitPerimeter=0;entryX=0.5;entryY=0;entryDx=0;entryDy=0;" edge="1" parent="1" source="Ird5JlI5sVTAQDbrXVhb-13" target="Ird5JlI5sVTAQDbrXVhb-8">
          <mxGeometry width="50" height="50" relative="1" as="geometry">
            <mxPoint x="760" y="190" as="sourcePoint" />
            <mxPoint x="540" y="150" as="targetPoint" />
            <Array as="points">
              <mxPoint x="750" y="130" />
              <mxPoint x="560" y="130" />
            </Array>
          </mxGeometry>
        </mxCell>
        <mxCell id="Ird5JlI5sVTAQDbrXVhb-15" value="" style="endArrow=classic;html=1;exitX=0.5;exitY=1;exitDx=0;exitDy=0;entryX=0.5;entryY=0;entryDx=0;entryDy=0;" edge="1" parent="1" source="Ird5JlI5sVTAQDbrXVhb-8" target="Ird5JlI5sVTAQDbrXVhb-17">
          <mxGeometry width="50" height="50" relative="1" as="geometry">
            <mxPoint x="490" y="260" as="sourcePoint" />
            <mxPoint x="560" y="320" as="targetPoint" />
          </mxGeometry>
        </mxCell>
        <mxCell id="Ird5JlI5sVTAQDbrXVhb-16" value="Evet" style="text;html=1;strokeColor=none;fillColor=none;align=center;verticalAlign=middle;whiteSpace=wrap;rounded=0;" vertex="1" parent="1">
          <mxGeometry x="560" y="280" width="40" height="20" as="geometry" />
        </mxCell>
        <mxCell id="Ird5JlI5sVTAQDbrXVhb-17" value="Çayı demle ve çaydanlığa su ekle" style="rounded=0;whiteSpace=wrap;html=1;" vertex="1" parent="1">
          <mxGeometry x="500" y="330" width="120" height="60" as="geometry" />
        </mxCell>
        <mxCell id="Ird5JlI5sVTAQDbrXVhb-18" value="" style="endArrow=classic;html=1;exitX=0;exitY=0.5;exitDx=0;exitDy=0;entryX=1;entryY=0.5;entryDx=0;entryDy=0;" edge="1" parent="1" source="Ird5JlI5sVTAQDbrXVhb-17" target="Ird5JlI5sVTAQDbrXVhb-19">
          <mxGeometry width="50" height="50" relative="1" as="geometry">
            <mxPoint x="380" y="385" as="sourcePoint" />
            <mxPoint x="410" y="360" as="targetPoint" />
          </mxGeometry>
        </mxCell>
        <mxCell id="Ird5JlI5sVTAQDbrXVhb-19" value="Çaydanlığı tekrar ocağa koy" style="rounded=0;whiteSpace=wrap;html=1;" vertex="1" parent="1">
          <mxGeometry x="320" y="330" width="120" height="60" as="geometry" />
        </mxCell>
        <mxCell id="Ird5JlI5sVTAQDbrXVhb-20" value="" style="endArrow=classic;html=1;exitX=0;exitY=0.5;exitDx=0;exitDy=0;" edge="1" parent="1" source="Ird5JlI5sVTAQDbrXVhb-19" target="Ird5JlI5sVTAQDbrXVhb-21">
          <mxGeometry width="50" height="50" relative="1" as="geometry">
            <mxPoint x="210" y="410" as="sourcePoint" />
            <mxPoint x="260" y="360" as="targetPoint" />
          </mxGeometry>
        </mxCell>
        <mxCell id="Ird5JlI5sVTAQDbrXVhb-21" value="Çay demini aldı mı VE su kaynadı mı?" style="rhombus;whiteSpace=wrap;html=1;" vertex="1" parent="1">
          <mxGeometry x="130" y="295" width="120" height="130" as="geometry" />
        </mxCell>
        <mxCell id="Ird5JlI5sVTAQDbrXVhb-22" value="" style="endArrow=classic;html=1;exitX=0;exitY=0.5;exitDx=0;exitDy=0;entryX=1;entryY=0.5;entryDx=0;entryDy=0;" edge="1" parent="1" source="Ird5JlI5sVTAQDbrXVhb-21" target="Ird5JlI5sVTAQDbrXVhb-23">
          <mxGeometry width="50" height="50" relative="1" as="geometry">
            <mxPoint x="120" y="360" as="sourcePoint" />
            <mxPoint x="90" y="360" as="targetPoint" />
          </mxGeometry>
        </mxCell>
        <mxCell id="Ird5JlI5sVTAQDbrXVhb-23" value="Bekle" style="rounded=0;whiteSpace=wrap;html=1;" vertex="1" parent="1">
          <mxGeometry x="-20" y="340" width="100" height="40" as="geometry" />
        </mxCell>
        <mxCell id="Ird5JlI5sVTAQDbrXVhb-25" value="Hayır" style="text;html=1;strokeColor=none;fillColor=none;align=center;verticalAlign=middle;whiteSpace=wrap;rounded=0;" vertex="1" parent="1">
          <mxGeometry x="90" y="360" width="40" height="20" as="geometry" />
        </mxCell>
        <mxCell id="Ird5JlI5sVTAQDbrXVhb-26" value="" style="endArrow=classic;html=1;exitX=0.5;exitY=0;exitDx=0;exitDy=0;entryX=1;entryY=0;entryDx=0;entryDy=0;" edge="1" parent="1" source="Ird5JlI5sVTAQDbrXVhb-23" target="Ird5JlI5sVTAQDbrXVhb-25">
          <mxGeometry width="50" height="50" relative="1" as="geometry">
            <mxPoint x="30" y="310" as="sourcePoint" />
            <mxPoint x="120" y="310" as="targetPoint" />
            <Array as="points">
              <mxPoint x="70" y="310" />
            </Array>
          </mxGeometry>
        </mxCell>
        <mxCell id="Ird5JlI5sVTAQDbrXVhb-27" value="" style="endArrow=classic;html=1;exitX=1;exitY=0;exitDx=0;exitDy=0;entryX=0.5;entryY=0;entryDx=0;entryDy=0;" edge="1" parent="1" source="Ird5JlI5sVTAQDbrXVhb-25" target="Ird5JlI5sVTAQDbrXVhb-30">
          <mxGeometry width="50" height="50" relative="1" as="geometry">
            <mxPoint x="150" y="470" as="sourcePoint" />
            <mxPoint x="130" y="480" as="targetPoint" />
          </mxGeometry>
        </mxCell>
        <mxCell id="Ird5JlI5sVTAQDbrXVhb-29" value="Evet" style="text;html=1;strokeColor=none;fillColor=none;align=center;verticalAlign=middle;whiteSpace=wrap;rounded=0;" vertex="1" parent="1">
          <mxGeometry x="80" y="405" width="40" height="20" as="geometry" />
        </mxCell>
        <mxCell id="Ird5JlI5sVTAQDbrXVhb-30" value="Servis Yap&amp;nbsp;" style="rounded=0;whiteSpace=wrap;html=1;" vertex="1" parent="1">
          <mxGeometry x="70" y="470" width="110" height="50" as="geometry" />
        </mxCell>
        <mxCell id="Ird5JlI5sVTAQDbrXVhb-31" value="Dur" style="ellipse;whiteSpace=wrap;html=1;" vertex="1" parent="1">
          <mxGeometry x="220" y="457.5" width="140" height="75" as="geometry" />
        </mxCell>
        <mxCell id="Ird5JlI5sVTAQDbrXVhb-32" value="" style="endArrow=classic;html=1;exitX=1;exitY=0.5;exitDx=0;exitDy=0;entryX=0;entryY=0.5;entryDx=0;entryDy=0;" edge="1" parent="1" source="Ird5JlI5sVTAQDbrXVhb-30" target="Ird5JlI5sVTAQDbrXVhb-31">
          <mxGeometry width="50" height="50" relative="1" as="geometry">
            <mxPoint x="200" y="510" as="sourcePoint" />
            <mxPoint x="250" y="460" as="targetPoint" />
          </mxGeometry>
        </mxCell>
      </root>
    </mxGraphModel>
  </diagram>
</mxfile>
